<svg xmlns="http://www.w3.org/2000/svg" xmlns:xlink="http://www.w3.org/1999/xlink" version="1.1" width="30" height="30" viewBox="0 0 256 256" xml:space="preserve">

<defs>
</defs>
<g style="stroke: none; stroke-width: 0; stroke-dasharray: none; stroke-linecap: butt; stroke-linejoin: miter; stroke-miterlimit: 10;  fill-rule: nonzero; opacity: 1;" transform="translate(1.4065934065934016 1.4065934065934016) scale(2.81 2.81)" >
	<path d="M 44.993 90 c -3.887 0 -7.835 -0.537 -11.753 -1.667 C 10.733 81.841 -2.297 58.25 4.193 35.744 c 3.144 -10.903 10.345 -19.929 20.278 -25.416 c 9.933 -5.487 21.407 -6.778 32.31 -3.632 c 1.592 0.459 2.511 2.122 2.052 3.714 c -0.459 1.592 -2.121 2.51 -3.714 2.051 c -9.364 -2.699 -19.217 -1.592 -27.747 3.119 S 12.658 28.043 9.958 37.406 c -5.574 19.327 5.617 39.587 24.945 45.161 c 19.327 5.574 39.587 -5.618 45.161 -24.945 c 0.459 -1.592 2.12 -2.512 3.714 -2.052 c 1.592 0.459 2.511 2.122 2.052 3.714 C 80.468 77.874 63.439 90 44.993 90 z" style="stroke: none; stroke-width: 1; stroke-dasharray: none; stroke-linecap: butt; stroke-linejoin: miter; stroke-miterlimit: 10; fill-rule: nonzero; opacity: 1;" transform=" matrix(1 0 0 1 0 0) " stroke-linecap="round" />
	<path d="M 64.588 16.22 c -0.506 0 -1.02 -0.128 -1.49 -0.398 l -0.398 -0.224 c -1.45 -0.802 -1.975 -2.628 -1.173 -4.078 c 0.803 -1.449 2.628 -1.976 4.077 -1.172 l 0.48 0.27 c 1.438 0.825 1.934 2.658 1.108 4.095 C 66.638 15.679 65.628 16.22 64.588 16.22 z" style="stroke: none; stroke-width: 1; stroke-dasharray: none; stroke-linecap: butt; stroke-linejoin: miter; stroke-miterlimit: 10; fill:#ffb11b; fill-rule: nonzero; opacity: 1;" transform=" matrix(1 0 0 1 0 0) " stroke-linecap="round" />
	<path d="M 83.579 42.048 c -1.38 0 -2.621 -0.957 -2.928 -2.36 c -0.065 -0.299 -0.136 -0.597 -0.209 -0.893 c -0.398 -1.608 0.582 -3.235 2.191 -3.634 c 1.612 -0.398 3.235 0.583 3.634 2.191 c 0.087 0.35 0.169 0.701 0.246 1.054 c 0.354 1.619 -0.672 3.218 -2.29 3.571 C 84.007 42.025 83.791 42.048 83.579 42.048 z M 79.762 31.77 c -1.068 0 -2.102 -0.571 -2.644 -1.577 c -0.146 -0.27 -0.295 -0.538 -0.447 -0.804 c -0.825 -1.437 -0.329 -3.271 1.107 -4.096 c 1.436 -0.825 3.271 -0.33 4.096 1.107 c 0.18 0.313 0.355 0.627 0.525 0.944 c 0.786 1.459 0.241 3.279 -1.217 4.065 C 80.73 31.654 80.243 31.77 79.762 31.77 z M 73.268 22.931 c -0.782 0 -1.564 -0.304 -2.151 -0.91 c -0.214 -0.219 -0.429 -0.435 -0.648 -0.649 c -1.188 -1.155 -1.213 -3.055 -0.057 -4.242 c 1.155 -1.188 3.056 -1.213 4.242 -0.057 c 0.259 0.252 0.515 0.508 0.766 0.767 c 1.155 1.189 1.127 3.088 -0.061 4.242 C 74.776 22.649 74.022 22.931 73.268 22.931 z" style="stroke: none; stroke-width: 1; stroke-dasharray: none; stroke-linecap: butt; stroke-linejoin: miter; stroke-miterlimit: 10; fill-rule: nonzero; opacity: 1;" transform=" matrix(1 0 0 1 0 0) " stroke-linecap="round" />
	<path d="M 84.455 52.48 c -0.054 0 -0.107 -0.001 -0.161 -0.004 c -1.655 -0.088 -2.925 -1.5 -2.838 -3.154 l 0.021 -0.446 c 0.058 -1.657 1.442 -2.969 3.104 -2.893 c 1.656 0.059 2.951 1.448 2.893 3.104 l -0.024 0.552 C 87.363 51.239 86.039 52.48 84.455 52.48 z" style="stroke: none; stroke-width: 1; stroke-dasharray: none; stroke-linecap: butt; stroke-linejoin: miter; stroke-miterlimit: 10; fill:#ffb11b; fill-rule: nonzero; opacity: 1;" transform=" matrix(1 0 0 1 0 0) " stroke-linecap="round" />
	<path d="M 60.328 63.309 c -0.637 0 -1.278 -0.201 -1.822 -0.618 L 41.932 49.995 c -0.741 -0.568 -1.176 -1.448 -1.176 -2.382 V 22.877 c 0 -1.657 1.343 -3 3 -3 s 3 1.343 3 3 v 23.255 l 15.397 11.795 c 1.316 1.008 1.565 2.891 0.558 4.206 C 62.121 62.905 61.229 63.309 60.328 63.309 z" style="stroke: none; stroke-width: 1; stroke-dasharray: none; stroke-linecap: butt; stroke-linejoin: miter; stroke-miterlimit: 10; fill:#ffb11b; fill-rule: nonzero; opacity: 1;" transform=" matrix(1 0 0 1 0 0) " stroke-linecap="round" />
	<path d="M 49.373 17.185 c -0.56 0 -1.119 -0.156 -1.612 -0.47 c -1.023 -0.652 -1.553 -1.857 -1.342 -3.051 L 48.39 2.48 c 0.21 -1.195 1.12 -2.146 2.305 -2.408 c 1.19 -0.265 2.412 0.215 3.107 1.208 l 4.606 6.578 c 0.951 1.358 0.621 3.228 -0.736 4.178 l -6.578 4.606 C 50.578 17.003 49.975 17.185 49.373 17.185 z" style="stroke: none; stroke-width: 1; stroke-dasharray: none; stroke-linecap: butt; stroke-linejoin: miter; stroke-miterlimit: 10;  fill-rule: nonzero; opacity: 1;" transform=" matrix(1 0 0 1 0 0) " stroke-linecap="round" />
</g>
</svg>